<svg width="317" height="66" viewBox="0 0 317 66" fill="none" xmlns="http://www.w3.org/2000/svg">
<mask id="path-1-inside-1_2_11" fill="white">
<path d="M6.78947 13C6.78947 9.68629 9.47577 7 12.7895 7H30.5395C39.376 7 46.5395 14.1634 46.5395 23V44C46.5395 52.8366 39.376 60 30.5395 60H12.7895C9.47577 60 6.78947 57.3137 6.78947 54V13Z"/>
</mask>
<path d="M6.78947 13C6.78947 9.68629 9.47577 7 12.7895 7H30.5395C39.376 7 46.5395 14.1634 46.5395 23V44C46.5395 52.8366 39.376 60 30.5395 60H12.7895C9.47577 60 6.78947 57.3137 6.78947 54V13Z" stroke="white" stroke-width="16" mask="url(#path-1-inside-1_2_11)"/>
<path d="M4 15.5526C1.79086 15.5526 0 17.3435 0 19.5526C0 21.7618 1.79086 23.5526 4 23.5526V15.5526ZM4.69737 23.5526H8.69737V15.5526H4.69737V23.5526ZM4 23.5526H4.69737V15.5526H4V23.5526Z" fill="white"/>
<path d="M4 43.4474C1.79086 43.4474 0 45.2382 0 47.4474C0 49.6565 1.79086 51.4474 4 51.4474V43.4474ZM4.69737 51.4474H8.69737V43.4474H4.69737V51.4474ZM4 51.4474H4.69737V43.4474H4V51.4474Z" fill="white"/>
<path d="M4 29.5C1.79086 29.5 0 31.2909 0 33.5C0 35.7091 1.79086 37.5 4 37.5V29.5ZM4.69737 37.5H8.69737V29.5H4.69737V37.5ZM4 37.5H4.69737V29.5H4V37.5Z" fill="white"/>
<path d="M73.304 53V49.274C71.648 50.93 70.208 52.064 68.984 52.676C67.796 53.252 66.554 53.54 65.258 53.54C62.306 53.54 60.002 52.424 58.346 50.192C56.726 47.96 55.916 44.828 55.916 40.796V37.88C55.916 33.956 56.906 30.842 58.886 28.538C60.866 26.234 63.728 25.082 67.472 25.082C68.408 25.082 69.326 25.172 70.226 25.352C71.162 25.532 72.08 25.784 72.98 26.108V13.04H79.19V53H73.304ZM62.288 40.796C62.288 43.208 62.684 44.972 63.476 46.088C64.304 47.204 65.456 47.762 66.932 47.762C67.76 47.762 68.642 47.528 69.578 47.06C70.514 46.556 71.648 45.62 72.98 44.252V31.724C71.216 31.004 69.596 30.644 68.12 30.644C66.032 30.644 64.538 31.292 63.638 32.588C62.738 33.884 62.288 35.648 62.288 37.88V40.796ZM108.104 53L105.836 45.818H93.2545L90.9865 53H84.5605L96.8185 16.28H102.542L114.854 53H108.104ZM96.7645 34.586L95.0905 39.878H103.946L102.272 34.586L99.5725 25.298L96.7645 34.586ZM131.896 53.54C130.996 53.54 130.078 53.45 129.142 53.27C128.242 53.09 127.324 52.838 126.388 52.514V64.502H120.178V25.622H126.064V29.348C127.756 27.656 129.196 26.522 130.384 25.946C131.572 25.37 132.814 25.082 134.11 25.082C137.098 25.082 139.402 26.198 141.022 28.43C142.642 30.662 143.452 33.794 143.452 37.826V40.742C143.452 44.666 142.462 47.78 140.482 50.084C138.502 52.388 135.64 53.54 131.896 53.54ZM132.436 30.86C131.608 30.86 130.726 31.112 129.79 31.616C128.89 32.084 127.756 33.002 126.388 34.37V46.898C128.152 47.618 129.772 47.978 131.248 47.978C133.336 47.978 134.83 47.33 135.73 46.034C136.63 44.738 137.08 42.974 137.08 40.742V37.826C137.08 35.414 136.666 33.65 135.838 32.534C135.046 31.418 133.912 30.86 132.436 30.86ZM162.377 53.54C161.477 53.54 160.559 53.45 159.623 53.27C158.723 53.09 157.805 52.838 156.869 52.514V64.502H150.659V25.622H156.545V29.348C158.237 27.656 159.677 26.522 160.865 25.946C162.053 25.37 163.295 25.082 164.591 25.082C167.579 25.082 169.883 26.198 171.503 28.43C173.123 30.662 173.933 33.794 173.933 37.826V40.742C173.933 44.666 172.943 47.78 170.963 50.084C168.983 52.388 166.121 53.54 162.377 53.54ZM162.917 30.86C162.089 30.86 161.207 31.112 160.271 31.616C159.371 32.084 158.237 33.002 156.869 34.37V46.898C158.633 47.618 160.253 47.978 161.729 47.978C163.817 47.978 165.311 47.33 166.211 46.034C167.111 44.738 167.561 42.974 167.561 40.742V37.826C167.561 35.414 167.147 33.65 166.319 32.534C165.527 31.418 164.393 30.86 162.917 30.86ZM187.511 20.438H180.977V14.012H187.511V20.438ZM187.349 53H181.139V25.622H187.349V53ZM196.715 53V16.28H209.135C213.527 16.28 216.875 17.504 219.179 19.952C221.483 22.4 222.635 26 222.635 30.752V38.474C222.635 43.262 221.483 46.88 219.179 49.328C216.875 51.776 213.527 53 209.135 53H196.715ZM208.865 22.49H203.195V46.79H208.865C211.421 46.79 213.239 46.16 214.319 44.9C215.435 43.64 215.993 41.498 215.993 38.474V30.752C215.993 27.764 215.435 25.64 214.319 24.38C213.239 23.12 211.421 22.49 208.865 22.49ZM236.765 20.438H230.231V14.012H236.765V20.438ZM236.603 53H230.393V25.622H236.603V53ZM265.895 53.27C264.059 53.27 262.583 52.892 261.467 52.136C260.387 51.38 259.595 50.444 259.091 49.328C257.543 50.768 256.049 51.83 254.609 52.514C253.169 53.198 251.621 53.54 249.965 53.54C247.553 53.54 245.771 52.766 244.619 51.218C243.503 49.67 242.945 47.708 242.945 45.332C242.945 43.748 243.233 42.362 243.809 41.174C244.421 39.95 245.411 38.996 246.779 38.312C248.147 37.628 250.019 37.286 252.395 37.286C253.331 37.286 254.303 37.358 255.311 37.502C256.319 37.61 257.327 37.754 258.335 37.934V34.748C258.335 33.236 257.921 32.21 257.093 31.67C256.265 31.094 255.149 30.806 253.745 30.806C252.665 30.806 251.477 30.95 250.181 31.238C248.921 31.526 247.553 31.976 246.077 32.588L244.295 27.296C247.931 25.82 251.225 25.082 254.177 25.082C256.841 25.082 258.893 25.532 260.333 26.432C261.809 27.332 262.835 28.52 263.411 29.996C263.987 31.472 264.275 33.056 264.275 34.748V45.278C264.275 45.818 264.419 46.34 264.707 46.844C265.031 47.312 265.643 47.546 266.543 47.546H267.137V53.27H265.895ZM248.939 45.224C248.939 46.196 249.155 46.97 249.587 47.546C250.019 48.086 250.649 48.356 251.477 48.356C252.305 48.356 253.241 48.14 254.285 47.708C255.329 47.276 256.679 46.268 258.335 44.684V42.362C256.463 42.038 254.627 41.876 252.827 41.876C251.423 41.876 250.415 42.164 249.803 42.74C249.227 43.316 248.939 44.144 248.939 45.224ZM287.972 31.292C286.28 31.292 284.66 31.562 283.112 32.102C281.6 32.606 280.142 33.434 278.738 34.586V53H272.528V25.622H278.414V29.834C280.25 28.106 281.888 26.882 283.328 26.162C284.768 25.442 286.316 25.082 287.972 25.082V31.292ZM304.481 55.7C303.293 59.012 301.781 61.388 299.945 62.828C298.109 64.304 295.589 65.042 292.385 65.042V58.832C294.293 58.76 295.787 58.328 296.867 57.536C297.983 56.78 298.811 55.718 299.351 54.35L299.837 53.108L290.063 25.622H296.219L300.917 39.284L302.753 45.062L304.535 39.284L309.017 25.622H315.173L304.481 55.7Z" fill="white"/>
</svg>