<svg width="264" height="129" viewBox="0 0 264 129" fill="none" xmlns="http://www.w3.org/2000/svg">
<mask id="path-1-inside-1_2_11" fill="white">
<path d="M113.789 6C113.789 2.68629 116.476 0 119.789 0H137.539C146.376 0 153.539 7.16344 153.539 16V37C153.539 45.8366 146.376 53 137.539 53H119.789C116.476 53 113.789 50.3137 113.789 47V6Z"/>
</mask>
<path d="M113.789 6C113.789 2.68629 116.476 0 119.789 0H137.539C146.376 0 153.539 7.16344 153.539 16V37C153.539 45.8366 146.376 53 137.539 53H119.789C116.476 53 113.789 50.3137 113.789 47V6Z" stroke="white" stroke-width="16" mask="url(#path-1-inside-1_2_11)"/>
<path d="M111 8.55263C108.791 8.55263 107 10.3435 107 12.5526C107 14.7618 108.791 16.5526 111 16.5526V8.55263ZM111.697 16.5526H115.697V8.55263H111.697V16.5526ZM111 16.5526H111.697V8.55263H111V16.5526Z" fill="white"/>
<path d="M111 36.4474C108.791 36.4474 107 38.2382 107 40.4474C107 42.6565 108.791 44.4474 111 44.4474V36.4474ZM111.697 44.4474H115.697V36.4474H111.697V44.4474ZM111 44.4474H111.697V36.4474H111V44.4474Z" fill="white"/>
<path d="M111 22.5C108.791 22.5 107 24.2909 107 26.5C107 28.7091 108.791 30.5 111 30.5V22.5ZM111.697 30.5H115.697V22.5H111.697V30.5ZM111 30.5H111.697V22.5H111V30.5Z" fill="white"/>
<path d="M20.304 116V112.274C18.648 113.93 17.208 115.064 15.984 115.676C14.796 116.252 13.554 116.54 12.258 116.54C9.306 116.54 7.002 115.424 5.346 113.192C3.726 110.96 2.916 107.828 2.916 103.796V100.88C2.916 96.956 3.906 93.842 5.886 91.538C7.866 89.234 10.728 88.082 14.472 88.082C15.408 88.082 16.326 88.172 17.226 88.352C18.162 88.532 19.08 88.784 19.98 89.108V76.04H26.19V116H20.304ZM9.288 103.796C9.288 106.208 9.684 107.972 10.476 109.088C11.304 110.204 12.456 110.762 13.932 110.762C14.76 110.762 15.642 110.528 16.578 110.06C17.514 109.556 18.648 108.62 19.98 107.252V94.724C18.216 94.004 16.596 93.644 15.12 93.644C13.032 93.644 11.538 94.292 10.638 95.588C9.738 96.884 9.288 98.648 9.288 100.88V103.796ZM55.1045 116L52.8365 108.818H40.2545L37.9865 116H31.5605L43.8185 79.28H49.5425L61.8545 116H55.1045ZM43.7645 97.586L42.0905 102.878H50.9465L49.2725 97.586L46.5725 88.298L43.7645 97.586ZM78.8961 116.54C77.9961 116.54 77.0781 116.45 76.1421 116.27C75.2421 116.09 74.3241 115.838 73.3881 115.514V127.502H67.1781V88.622H73.0641V92.348C74.7561 90.656 76.1961 89.522 77.3841 88.946C78.5721 88.37 79.8141 88.082 81.1101 88.082C84.0981 88.082 86.4021 89.198 88.0221 91.43C89.6421 93.662 90.4521 96.794 90.4521 100.826V103.742C90.4521 107.666 89.4621 110.78 87.4821 113.084C85.5021 115.388 82.6401 116.54 78.8961 116.54ZM79.4361 93.86C78.6081 93.86 77.7261 94.112 76.7901 94.616C75.8901 95.084 74.7561 96.002 73.3881 97.37V109.898C75.1521 110.618 76.7721 110.978 78.2481 110.978C80.3361 110.978 81.8301 110.33 82.7301 109.034C83.6301 107.738 84.0801 105.974 84.0801 103.742V100.826C84.0801 98.414 83.6661 96.65 82.8381 95.534C82.0461 94.418 80.9121 93.86 79.4361 93.86ZM109.377 116.54C108.477 116.54 107.559 116.45 106.623 116.27C105.723 116.09 104.805 115.838 103.869 115.514V127.502H97.6586V88.622H103.545V92.348C105.237 90.656 106.677 89.522 107.865 88.946C109.053 88.37 110.295 88.082 111.591 88.082C114.579 88.082 116.883 89.198 118.503 91.43C120.123 93.662 120.933 96.794 120.933 100.826V103.742C120.933 107.666 119.943 110.78 117.963 113.084C115.983 115.388 113.121 116.54 109.377 116.54ZM109.917 93.86C109.089 93.86 108.207 94.112 107.271 94.616C106.371 95.084 105.237 96.002 103.869 97.37V109.898C105.633 110.618 107.253 110.978 108.729 110.978C110.817 110.978 112.311 110.33 113.211 109.034C114.111 107.738 114.561 105.974 114.561 103.742V100.826C114.561 98.414 114.147 96.65 113.319 95.534C112.527 94.418 111.393 93.86 109.917 93.86ZM134.511 83.438H127.977V77.012H134.511V83.438ZM134.349 116H128.139V88.622H134.349V116ZM143.715 116V79.28H156.135C160.527 79.28 163.875 80.504 166.179 82.952C168.483 85.4 169.635 89 169.635 93.752V101.474C169.635 106.262 168.483 109.88 166.179 112.328C163.875 114.776 160.527 116 156.135 116H143.715ZM155.865 85.49H150.195V109.79H155.865C158.421 109.79 160.239 109.16 161.319 107.9C162.435 106.64 162.993 104.498 162.993 101.474V93.752C162.993 90.764 162.435 88.64 161.319 87.38C160.239 86.12 158.421 85.49 155.865 85.49ZM183.765 83.438H177.231V77.012H183.765V83.438ZM183.603 116H177.393V88.622H183.603V116ZM212.895 116.27C211.059 116.27 209.583 115.892 208.467 115.136C207.387 114.38 206.595 113.444 206.091 112.328C204.543 113.768 203.049 114.83 201.609 115.514C200.169 116.198 198.621 116.54 196.965 116.54C194.553 116.54 192.771 115.766 191.619 114.218C190.503 112.67 189.945 110.708 189.945 108.332C189.945 106.748 190.233 105.362 190.809 104.174C191.421 102.95 192.411 101.996 193.779 101.312C195.147 100.628 197.019 100.286 199.395 100.286C200.331 100.286 201.303 100.358 202.311 100.502C203.319 100.61 204.327 100.754 205.335 100.934V97.748C205.335 96.236 204.921 95.21 204.093 94.67C203.265 94.094 202.149 93.806 200.745 93.806C199.665 93.806 198.477 93.95 197.181 94.238C195.921 94.526 194.553 94.976 193.077 95.588L191.295 90.296C194.931 88.82 198.225 88.082 201.177 88.082C203.841 88.082 205.893 88.532 207.333 89.432C208.809 90.332 209.835 91.52 210.411 92.996C210.987 94.472 211.275 96.056 211.275 97.748V108.278C211.275 108.818 211.419 109.34 211.707 109.844C212.031 110.312 212.643 110.546 213.543 110.546H214.137V116.27H212.895ZM195.939 108.224C195.939 109.196 196.155 109.97 196.587 110.546C197.019 111.086 197.649 111.356 198.477 111.356C199.305 111.356 200.241 111.14 201.285 110.708C202.329 110.276 203.679 109.268 205.335 107.684V105.362C203.463 105.038 201.627 104.876 199.827 104.876C198.423 104.876 197.415 105.164 196.803 105.74C196.227 106.316 195.939 107.144 195.939 108.224ZM234.972 94.292C233.28 94.292 231.66 94.562 230.112 95.102C228.6 95.606 227.142 96.434 225.738 97.586V116H219.528V88.622H225.414V92.834C227.25 91.106 228.888 89.882 230.328 89.162C231.768 88.442 233.316 88.082 234.972 88.082V94.292ZM251.481 118.7C250.293 122.012 248.781 124.388 246.945 125.828C245.109 127.304 242.589 128.042 239.385 128.042V121.832C241.293 121.76 242.787 121.328 243.867 120.536C244.983 119.78 245.811 118.718 246.351 117.35L246.837 116.108L237.063 88.622H243.219L247.917 102.284L249.753 108.062L251.535 102.284L256.017 88.622H262.173L251.481 118.7Z" fill="white"/>
</svg>